ffmpeg started on 2026-03-24 at 12:47:46
Report written to "D:\Convert\FFMetrics\reports\psnr_report-6.txt"
Log level: 32
Command line:
ffmpeg -hide_banner -nostdin -r 24000/1001 -i "F:\\\xc0\xed\xe8\xec\xe5\\LightFamily\\\xcc\xee\xe6\xe5\xf2 \xeb\xe8 \xf1\xf3\xf9\xe5\xf1\xf2\xe2\xee\xe2\xe0\xf2\xfc \xe4\xf0\xf3\xe6\xe1\xe0 \xec\xe5\xe6\xe4\xf3 \xec\xf3\xe6\xf7\xe8\xed\xee\xe9 \xe8 \xe6\xe5\xed\xf9\xe8\xed\xee\xe9 (\xcd\xe5\xf2, \xfd\xf2\xee \xed\xe5 \xf2\xe0\xea!)\\LightFamilyDUB_\xcc\xee\xe6\xe5\xf2_\xeb\xe8_\xf1\xf3\xf9\xe5\xf1\xf2\xe2\xee\xe2\xe0\xf2\xfc_\xe4\xf0\xf3\xe6\xe1\xe0_\xec\xe5\xe6\xe4\xf3_\xef\xe0\xf0\xed\xe5\xec_\xe8_\xe4\xe5\xe2\xf3\xf8\xea\xee\xe9_04_HEVC.mkv" -r 24000/1001 -i "F:\\\xc0\xed\xe8\xec\xe5\\LightFamily\\\xcc\xee\xe6\xe5\xf2 \xeb\xe8 \xf1\xf3\xf9\xe5\xf1\xf2\xe2\xee\xe2\xe0\xf2\xfc \xe4\xf0\xf3\xe6\xe1\xe0 \xec\xe5\xe6\xe4\xf3 \xec\xf3\xe6\xf7\xe8\xed\xee\xe9 \xe8 \xe6\xe5\xed\xf9\xe8\xed\xee\xe9 (\xcd\xe5\xf2, \xfd\xf2\xee \xed\xe5 \xf2\xe0\xea!)\\LightFamilyDUB_\xcc\xee\xe6\xe5\xf2_\xeb\xe8_\xf1\xf3\xf9\xe5\xf1\xf2\xe2\xee\xe2\xe0\xf2\xfc_\xe4\xf0\xf3\xe6\xe1\xe0_\xec\xe5\xe6\xe4\xf3_\xef\xe0\xf0\xed\xe5\xec_\xe8_\xe4\xe5\xe2\xf3\xf8\xea\xee\xe9_04.mp4" -lavfi "[0:v]settb=AVTB,setpts=PTS-STARTPTS,format=pix_fmts=yuv420p10le,fps=24000/1001,scale=1920:1080:flags=lanczos:param0=3:out_range=limited:out_color_matrix=bt709:out_chroma_loc=left,setsar=1/1,setdar=(1920/1080)*(1/1),colorspace=format=yuv420p10:range=tv:primaries=bt709:trc=bt709:space=bt709:fast=0[main];[1:v]settb=AVTB,setpts=PTS-STARTPTS,format=pix_fmts=yuv420p,fps=24000/1001,scale=1920:1080:flags=lanczos:param0=3:out_range=limited:out_color_matrix=bt709:out_chroma_loc=left,setsar=1/1,setdar=(1920/1080)*(1/1),colorspace=format=yuv420p:range=tv:primaries=bt709:trc=bt709:space=bt709:fast=0[ref];[main][ref]psnr=eof_action=endall:stats_file='D\\:/Convert/FFMetrics/logs/psnr_logfile-6.txt'" -f null -
Input #0, matroska,webm, from 'F:\Аниме\LightFamily\Может ли существовать дружба между мужчиной и женщиной (Нет, это не так!)\LightFamilyDUB_Может_ли_существовать_дружба_между_парнем_и_девушкой_04_HEVC.mkv':
  Metadata:
    COMPATIBLE_BRANDS: mp42mp41
    MAJOR_BRAND     : mp42
    MINOR_VERSION   : 0
    ENCODER         : Lavf61.7.100
  Duration: 00:23:41.08, start: -0.021000, bitrate: 867 kb/s
  Stream #0:0(eng): Video: hevc (Main 10), yuv420p10le(tv, bt709, progressive), 1920x1080 [SAR 1:1 DAR 16:9], 23.98 fps, 23.98 tbr, 1k tbn (default)
      Metadata:
        HANDLER_NAME    : Mainconcept Video Media Handler
        VENDOR_ID       : [0][0][0][0]
        ENCODER         : Lavc61.19.100 libx265
        BPS             : 670323
        DURATION        : 00:23:41.044708333
        NUMBER_OF_FRAMES: 34071
        NUMBER_OF_BYTES : 119069877
        _STATISTICS_WRITING_APP: mkvpropedit v94.0 ('Initiate') 64-bit
        _STATISTICS_WRITING_DATE_UTC: 2026-03-23 13:15:20
        _STATISTICS_TAGS: BPS DURATION NUMBER_OF_FRAMES NUMBER_OF_BYTES
  Stream #0:1(eng): Audio: aac (LC), 48000 Hz, stereo, fltp (default)
      Metadata:
        HANDLER_NAME    : #Mainconcept MP4 Sound Media Handler
        VENDOR_ID       : [0][0][0][0]
        ENCODER         : Lavc61.19.100 aac
        BPS             : 192786
        DURATION        : 00:23:41.056000000
        NUMBER_OF_FRAMES: 66613
        NUMBER_OF_BYTES : 34244981
        _STATISTICS_WRITING_APP: mkvpropedit v94.0 ('Initiate') 64-bit
        _STATISTICS_WRITING_DATE_UTC: 2026-03-23 13:15:20
        _STATISTICS_TAGS: BPS DURATION NUMBER_OF_FRAMES NUMBER_OF_BYTES
Input #1, mov,mp4,m4a,3gp,3g2,mj2, from 'F:\Аниме\LightFamily\Может ли существовать дружба между мужчиной и женщиной (Нет, это не так!)\LightFamilyDUB_Может_ли_существовать_дружба_между_парнем_и_девушкой_04.mp4':
  Metadata:
    major_brand     : mp42
    minor_version   : 0
    compatible_brands: mp42mp41
    creation_time   : 2025-05-11T11:09:38.000000Z
  Duration: 00:23:41.04, start: 0.000000, bitrate: 8388 kb/s
  Stream #1:0[0x1](eng): Video: h264 (Main) (avc1 / 0x31637661), yuv420p(tv, bt709, progressive), 1920x1080, 8003 kb/s, 23.98 fps, 23.98 tbr, 24k tbn (default)
      Metadata:
        creation_time   : 2025-05-11T11:09:38.000000Z
        handler_name    : Mainconcept Video Media Handler
        vendor_id       : [0][0][0][0]
        encoder         : AVC Coding
  Stream #1:1[0x2](eng): Audio: aac (LC) (mp4a / 0x6134706D), 48000 Hz, stereo, fltp, 381 kb/s (default)
      Metadata:
        creation_time   : 2025-05-11T11:09:38.000000Z
        handler_name    : #Mainconcept MP4 Sound Media Handler
        vendor_id       : [0][0][0][0]
Stream mapping:
  Stream #0:0 (hevc) -> settb:default
  Stream #1:0 (h264) -> settb:default
  psnr:default -> Stream #0:0 (wrapped_avframe)
  Stream #0:1 -> #0:1 (aac (native) -> pcm_s16le (native))
Output #0, null, to 'pipe:':
  Metadata:
    COMPATIBLE_BRANDS: mp42mp41
    MAJOR_BRAND     : mp42
    MINOR_VERSION   : 0
    encoder         : Lavf61.7.100
  Stream #0:0: Video: wrapped_avframe, yuv420p10le(tv, bt709, progressive), 1920x1080 [SAR 1:1 DAR 16:9], q=2-31, 200 kb/s, 23.98 fps, 23.98 tbn
      Metadata:
        encoder         : Lavc61.19.100 wrapped_avframe
  Stream #0:1(eng): Audio: pcm_s16le, 48000 Hz, stereo, s16, 1536 kb/s (default)
      Metadata:
        HANDLER_NAME    : #Mainconcept MP4 Sound Media Handler
        VENDOR_ID       : [0][0][0][0]
        _STATISTICS_TAGS: BPS DURATION NUMBER_OF_FRAMES NUMBER_OF_BYTES
        BPS             : 192786
        DURATION        : 00:23:41.056000000
        NUMBER_OF_FRAMES: 66613
        NUMBER_OF_BYTES : 34244981
        _STATISTICS_WRITING_APP: mkvpropedit v94.0 ('Initiate') 64-bit
        _STATISTICS_WRITING_DATE_UTC: 2026-03-23 13:15:20
        encoder         : Lavc61.19.100 pcm_s16le
frame=  147 fps=0.0 q=-0.0 size=N/A time=00:00:06.13 bitrate=N/A speed=12.1x    frame=  342 fps=331 q=-0.0 size=N/A time=00:00:14.26 bitrate=N/A speed=13.8x    frame=  530 fps=343 q=-0.0 size=N/A time=00:00:22.10 bitrate=N/A speed=14.3x    frame=  691 fps=336 q=-0.0 size=N/A time=00:00:28.82 bitrate=N/A speed=  14x    frame=  843 fps=328 q=-0.0 size=N/A time=00:00:35.16 bitrate=N/A speed=13.7x    frame= 1015 fps=328 q=-0.0 size=N/A time=00:00:42.33 bitrate=N/A speed=13.7x    frame= 1189 fps=330 q=-0.0 size=N/A time=00:00:49.59 bitrate=N/A speed=13.8x    frame= 1371 fps=332 q=-0.0 size=N/A time=00:00:57.18 bitrate=N/A speed=13.9x    frame= 1524 fps=329 q=-0.0 size=N/A time=00:01:03.56 bitrate=N/A speed=13.7x    frame= 1684 fps=327 q=-0.0 size=N/A time=00:01:10.23 bitrate=N/A speed=13.6x    frame= 1849 fps=327 q=-0.0 size=N/A time=00:01:17.11 bitrate=N/A speed=13.6x    frame= 1999 fps=323 q=-0.0 size=N/A time=00:01:23.37 bitrate=N/A speed=13.5x    frame= 2161 fps=323 q=-0.0 size=N/A time=00:01:30.13 bitrate=N/A speed=13.5x    frame= 2323 fps=322 q=-0.0 size=N/A time=00:01:36.88 bitrate=N/A speed=13.4x    frame= 2496 fps=323 q=-0.0 size=N/A time=00:01:44.10 bitrate=N/A speed=13.5x    frame= 2672 fps=324 q=-0.0 size=N/A time=00:01:51.44 bitrate=N/A speed=13.5x    frame= 2857 fps=326 q=-0.0 size=N/A time=00:01:59.16 bitrate=N/A speed=13.6x    frame= 3048 fps=329 q=-0.0 size=N/A time=00:02:07.12 bitrate=N/A speed=13.7x    frame= 3240 fps=331 q=-0.0 size=N/A time=00:02:15.13 bitrate=N/A speed=13.8x    frame= 3430 fps=333 q=-0.0 size=N/A time=00:02:23.05 bitrate=N/A speed=13.9x    frame= 3620 fps=335 q=-0.0 size=N/A time=00:02:30.98 bitrate=N/A speed=  14x    frame= 3816 fps=336 q=-0.0 size=N/A time=00:02:39.15 bitrate=N/A speed=  14x    frame= 4002 fps=338 q=-0.0 size=N/A time=00:02:46.91 bitrate=N/A speed=14.1x    frame= 4192 fps=339 q=-0.0 size=N/A time=00:02:54.84 bitrate=N/A speed=14.1x    frame= 4380 fps=340 q=-0.0 size=N/A time=00:03:02.68 bitrate=N/A speed=14.2x    frame= 4570 fps=341 q=-0.0 size=N/A time=00:03:10.60 bitrate=N/A speed=14.2x    frame= 4753 fps=342 q=-0.0 size=N/A time=00:03:18.23 bitrate=N/A speed=14.2x    frame= 4945 fps=343 q=-0.0 size=N/A time=00:03:26.24 bitrate=N/A speed=14.3x    frame= 5138 fps=344 q=-0.0 size=N/A time=00:03:34.29 bitrate=N/A speed=14.3x    frame= 5325 fps=344 q=-0.0 size=N/A time=00:03:42.09 bitrate=N/A speed=14.4x    frame= 5519 fps=346 q=-0.0 size=N/A time=00:03:50.18 bitrate=N/A speed=14.4x    frame= 5719 fps=347 q=-0.0 size=N/A time=00:03:58.52 bitrate=N/A speed=14.5x    frame= 5907 fps=347 q=-0.0 size=N/A time=00:04:06.37 bitrate=N/A speed=14.5x    frame= 6099 fps=348 q=-0.0 size=N/A time=00:04:14.37 bitrate=N/A speed=14.5x    frame= 6291 fps=349 q=-0.0 size=N/A time=00:04:22.38 bitrate=N/A speed=14.5x    frame= 6474 fps=349 q=-0.0 size=N/A time=00:04:30.01 bitrate=N/A speed=14.6x    frame= 6651 fps=349 q=-0.0 size=N/A time=00:04:37.40 bitrate=N/A speed=14.5x    frame= 6843 fps=349 q=-0.0 size=N/A time=00:04:45.41 bitrate=N/A speed=14.6x    frame= 7025 fps=349 q=-0.0 size=N/A time=00:04:53.00 bitrate=N/A speed=14.6x    frame= 7209 fps=350 q=-0.0 size=N/A time=00:05:00.67 bitrate=N/A speed=14.6x    frame= 7398 fps=350 q=-0.0 size=N/A time=00:05:08.55 bitrate=N/A speed=14.6x    frame= 7585 fps=350 q=-0.0 size=N/A time=00:05:16.35 bitrate=N/A speed=14.6x    frame= 7775 fps=351 q=-0.0 size=N/A time=00:05:24.28 bitrate=N/A speed=14.6x    frame= 7973 fps=351 q=-0.0 size=N/A time=00:05:32.54 bitrate=N/A speed=14.7x    frame= 8159 fps=352 q=-0.0 size=N/A time=00:05:40.29 bitrate=N/A speed=14.7x    frame= 8351 fps=352 q=-0.0 size=N/A time=00:05:48.30 bitrate=N/A speed=14.7x    frame= 8538 fps=352 q=-0.0 size=N/A time=00:05:56.10 bitrate=N/A speed=14.7x    frame= 8737 fps=353 q=-0.0 size=N/A time=00:06:04.40 bitrate=N/A speed=14.7x    frame= 8929 fps=353 q=-0.0 size=N/A time=00:06:12.41 bitrate=N/A speed=14.7x    frame= 9121 fps=354 q=-0.0 size=N/A time=00:06:20.42 bitrate=N/A speed=14.8x    frame= 9309 fps=354 q=-0.0 size=N/A time=00:06:28.26 bitrate=N/A speed=14.8x    frame= 9502 fps=354 q=-0.0 size=N/A time=00:06:36.31 bitrate=N/A speed=14.8x    frame= 9685 fps=354 q=-0.0 size=N/A time=00:06:43.94 bitrate=N/A speed=14.8x    frame= 9874 fps=355 q=-0.0 size=N/A time=00:06:51.82 bitrate=N/A speed=14.8x    frame=10065 fps=355 q=-0.0 size=N/A time=00:06:59.79 bitrate=N/A speed=14.8x    frame=10263 fps=355 q=-0.0 size=N/A time=00:07:08.05 bitrate=N/A speed=14.8x    frame=10451 fps=355 q=-0.0 size=N/A time=00:07:15.89 bitrate=N/A speed=14.8x    frame=10645 fps=356 q=-0.0 size=N/A time=00:07:23.98 bitrate=N/A speed=14.8x    frame=10839 fps=356 q=-0.0 size=N/A time=00:07:32.07 bitrate=N/A speed=14.8x    frame=11026 fps=356 q=-0.0 size=N/A time=00:07:39.87 bitrate=N/A speed=14.8x    frame=11220 fps=356 q=-0.0 size=N/A time=00:07:47.96 bitrate=N/A speed=14.9x    frame=11406 fps=357 q=-0.0 size=N/A time=00:07:55.72 bitrate=N/A speed=14.9x    frame=11590 fps=357 q=-0.0 size=N/A time=00:08:03.39 bitrate=N/A speed=14.9x    frame=11782 fps=357 q=-0.0 size=N/A time=00:08:11.40 bitrate=N/A speed=14.9x    frame=11975 fps=357 q=-0.0 size=N/A time=00:08:19.45 bitrate=N/A speed=14.9x    frame=12163 fps=357 q=-0.0 size=N/A time=00:08:27.29 bitrate=N/A speed=14.9x    frame=12363 fps=358 q=-0.0 size=N/A time=00:08:35.64 bitrate=N/A speed=14.9x    frame=12548 fps=358 q=-0.0 size=N/A time=00:08:43.35 bitrate=N/A speed=14.9x    frame=12747 fps=358 q=-0.0 size=N/A time=00:08:51.65 bitrate=N/A speed=14.9x    frame=12930 fps=358 q=-0.0 size=N/A time=00:08:59.28 bitrate=N/A speed=14.9x    frame=13108 fps=358 q=-0.0 size=N/A time=00:09:06.71 bitrate=N/A speed=14.9x    frame=13294 fps=358 q=-0.0 size=N/A time=00:09:14.47 bitrate=N/A speed=14.9x    frame=13488 fps=358 q=-0.0 size=N/A time=00:09:22.56 bitrate=N/A speed=14.9x    frame=13681 fps=358 q=-0.0 size=N/A time=00:09:30.61 bitrate=N/A speed=14.9x    frame=13873 fps=358 q=-0.0 size=N/A time=00:09:38.61 bitrate=N/A speed=14.9x    frame=14064 fps=358 q=-0.0 size=N/A time=00:09:46.58 bitrate=N/A speed=  15x    frame=14251 fps=359 q=-0.0 size=N/A time=00:09:54.38 bitrate=N/A speed=  15x    frame=14438 fps=359 q=-0.0 size=N/A time=00:10:02.18 bitrate=N/A speed=  15x    frame=14641 fps=359 q=-0.0 size=N/A time=00:10:10.65 bitrate=N/A speed=  15x    frame=14830 fps=359 q=-0.0 size=N/A time=00:10:18.53 bitrate=N/A speed=  15x    frame=15022 fps=359 q=-0.0 size=N/A time=00:10:26.54 bitrate=N/A speed=  15x    frame=15194 fps=359 q=-0.0 size=N/A time=00:10:33.71 bitrate=N/A speed=  15x    frame=15381 fps=359 q=-0.0 size=N/A time=00:10:41.51 bitrate=N/A speed=  15x    frame=15572 fps=359 q=-0.0 size=N/A time=00:10:49.48 bitrate=N/A speed=  15x    frame=15768 fps=359 q=-0.0 size=N/A time=00:10:57.65 bitrate=N/A speed=  15x    frame=15957 fps=360 q=-0.0 size=N/A time=00:11:05.53 bitrate=N/A speed=  15x    frame=16153 fps=360 q=-0.0 size=N/A time=00:11:13.71 bitrate=N/A speed=  15x    frame=16350 fps=360 q=-0.0 size=N/A time=00:11:21.93 bitrate=N/A speed=  15x    frame=16542 fps=360 q=-0.0 size=N/A time=00:11:29.93 bitrate=N/A speed=  15x    frame=16731 fps=360 q=-0.0 size=N/A time=00:11:37.82 bitrate=N/A speed=  15x    frame=16932 fps=360 q=-0.0 size=N/A time=00:11:46.20 bitrate=N/A speed=  15x    frame=17126 fps=361 q=-0.0 size=N/A time=00:11:54.29 bitrate=N/A speed=  15x    frame=17318 fps=361 q=-0.0 size=N/A time=00:12:02.30 bitrate=N/A speed=  15x    frame=17510 fps=361 q=-0.0 size=N/A time=00:12:10.31 bitrate=N/A speed=15.1x    frame=17703 fps=361 q=-0.0 size=N/A time=00:12:18.36 bitrate=N/A speed=15.1x    frame=17899 fps=361 q=-0.0 size=N/A time=00:12:26.53 bitrate=N/A speed=15.1x    frame=18085 fps=361 q=-0.0 size=N/A time=00:12:34.29 bitrate=N/A speed=15.1x    frame=18261 fps=361 q=-0.0 size=N/A time=00:12:41.63 bitrate=N/A speed=15.1x    frame=18455 fps=361 q=-0.0 size=N/A time=00:12:49.72 bitrate=N/A speed=15.1x    frame=18640 fps=361 q=-0.0 size=N/A time=00:12:57.44 bitrate=N/A speed=15.1x    frame=18820 fps=361 q=-0.0 size=N/A time=00:13:04.95 bitrate=N/A speed=15.1x    frame=19020 fps=361 q=-0.0 size=N/A time=00:13:13.29 bitrate=N/A speed=15.1x    frame=19216 fps=361 q=-0.0 size=N/A time=00:13:21.46 bitrate=N/A speed=15.1x    frame=19393 fps=361 q=-0.0 size=N/A time=00:13:28.84 bitrate=N/A speed=15.1x    frame=19580 fps=361 q=-0.0 size=N/A time=00:13:36.64 bitrate=N/A speed=15.1x    frame=19777 fps=361 q=-0.0 size=N/A time=00:13:44.86 bitrate=N/A speed=15.1x    frame=19973 fps=362 q=-0.0 size=N/A time=00:13:53.04 bitrate=N/A speed=15.1x    frame=20163 fps=362 q=-0.0 size=N/A time=00:14:00.96 bitrate=N/A speed=15.1x    frame=20354 fps=362 q=-0.0 size=N/A time=00:14:08.93 bitrate=N/A speed=15.1x    frame=20546 fps=362 q=-0.0 size=N/A time=00:14:16.93 bitrate=N/A speed=15.1x    frame=20739 fps=362 q=-0.0 size=N/A time=00:14:24.98 bitrate=N/A speed=15.1x    frame=20931 fps=362 q=-0.0 size=N/A time=00:14:32.99 bitrate=N/A speed=15.1x    frame=21101 fps=362 q=-0.0 size=N/A time=00:14:40.08 bitrate=N/A speed=15.1x    frame=21281 fps=362 q=-0.0 size=N/A time=00:14:47.59 bitrate=N/A speed=15.1x    frame=21476 fps=362 q=-0.0 size=N/A time=00:14:55.72 bitrate=N/A speed=15.1x    frame=21673 fps=362 q=-0.0 size=N/A time=00:15:03.94 bitrate=N/A speed=15.1x    frame=21865 fps=362 q=-0.0 size=N/A time=00:15:11.95 bitrate=N/A speed=15.1x    frame=22064 fps=362 q=-0.0 size=N/A time=00:15:20.25 bitrate=N/A speed=15.1x    frame=22263 fps=362 q=-0.0 size=N/A time=00:15:28.55 bitrate=N/A speed=15.1x    frame=22452 fps=362 q=-0.0 size=N/A time=00:15:36.43 bitrate=N/A speed=15.1x    frame=22633 fps=362 q=-0.0 size=N/A time=00:15:43.98 bitrate=N/A speed=15.1x    frame=22841 fps=363 q=-0.0 size=N/A time=00:15:52.66 bitrate=N/A speed=15.1x    frame=23023 fps=363 q=-0.0 size=N/A time=00:16:00.25 bitrate=N/A speed=15.1x    frame=23221 fps=363 q=-0.0 size=N/A time=00:16:08.50 bitrate=N/A speed=15.1x    frame=23410 fps=363 q=-0.0 size=N/A time=00:16:16.39 bitrate=N/A speed=15.1x    frame=23602 fps=363 q=-0.0 size=N/A time=00:16:24.40 bitrate=N/A speed=15.1x    frame=23800 fps=363 q=-0.0 size=N/A time=00:16:32.65 bitrate=N/A speed=15.1x    frame=24000 fps=363 q=-0.0 size=N/A time=00:16:41.00 bitrate=N/A speed=15.1x    frame=24194 fps=363 q=-0.0 size=N/A time=00:16:49.09 bitrate=N/A speed=15.2x    frame=24393 fps=363 q=-0.0 size=N/A time=00:16:57.39 bitrate=N/A speed=15.2x    frame=24584 fps=363 q=-0.0 size=N/A time=00:17:05.35 bitrate=N/A speed=15.2x    frame=24772 fps=363 q=-0.0 size=N/A time=00:17:13.19 bitrate=N/A speed=15.2x    frame=24959 fps=363 q=-0.0 size=N/A time=00:17:20.99 bitrate=N/A speed=15.2x    frame=25155 fps=364 q=-0.0 size=N/A time=00:17:29.17 bitrate=N/A speed=15.2x    frame=25350 fps=364 q=-0.0 size=N/A time=00:17:37.30 bitrate=N/A speed=15.2x    frame=25549 fps=364 q=-0.0 size=N/A time=00:17:45.60 bitrate=N/A speed=15.2x    frame=25739 fps=364 q=-0.0 size=N/A time=00:17:53.53 bitrate=N/A speed=15.2x    frame=25945 fps=364 q=-0.0 size=N/A time=00:18:02.12 bitrate=N/A speed=15.2x    frame=26133 fps=364 q=-0.0 size=N/A time=00:18:09.96 bitrate=N/A speed=15.2x    frame=26333 fps=364 q=-0.0 size=N/A time=00:18:18.30 bitrate=N/A speed=15.2x    frame=26518 fps=364 q=-0.0 size=N/A time=00:18:26.02 bitrate=N/A speed=15.2x    frame=26714 fps=364 q=-0.0 size=N/A time=00:18:34.19 bitrate=N/A speed=15.2x    frame=26910 fps=364 q=-0.0 size=N/A time=00:18:42.37 bitrate=N/A speed=15.2x    frame=27096 fps=364 q=-0.0 size=N/A time=00:18:50.12 bitrate=N/A speed=15.2x    frame=27268 fps=364 q=-0.0 size=N/A time=00:18:57.30 bitrate=N/A speed=15.2x    frame=27462 fps=364 q=-0.0 size=N/A time=00:19:05.39 bitrate=N/A speed=15.2x    frame=27650 fps=364 q=-0.0 size=N/A time=00:19:13.23 bitrate=N/A speed=15.2x    frame=27843 fps=364 q=-0.0 size=N/A time=00:19:21.28 bitrate=N/A speed=15.2x    frame=28034 fps=364 q=-0.0 size=N/A time=00:19:29.25 bitrate=N/A speed=15.2x    frame=28228 fps=365 q=-0.0 size=N/A time=00:19:37.34 bitrate=N/A speed=15.2x    frame=28427 fps=365 q=-0.0 size=N/A time=00:19:45.64 bitrate=N/A speed=15.2x    frame=28617 fps=365 q=-0.0 size=N/A time=00:19:53.56 bitrate=N/A speed=15.2x    frame=28802 fps=365 q=-0.0 size=N/A time=00:20:01.28 bitrate=N/A speed=15.2x    frame=28996 fps=365 q=-0.0 size=N/A time=00:20:09.37 bitrate=N/A speed=15.2x    frame=29187 fps=365 q=-0.0 size=N/A time=00:20:17.34 bitrate=N/A speed=15.2x    frame=29372 fps=365 q=-0.0 size=N/A time=00:20:25.05 bitrate=N/A speed=15.2x    frame=29564 fps=365 q=-0.0 size=N/A time=00:20:33.06 bitrate=N/A speed=15.2x    frame=29766 fps=365 q=-0.0 size=N/A time=00:20:41.49 bitrate=N/A speed=15.2x    frame=29949 fps=365 q=-0.0 size=N/A time=00:20:49.12 bitrate=N/A speed=15.2x    frame=30136 fps=365 q=-0.0 size=N/A time=00:20:56.92 bitrate=N/A speed=15.2x    frame=30334 fps=365 q=-0.0 size=N/A time=00:21:05.18 bitrate=N/A speed=15.2x    frame=30530 fps=365 q=-0.0 size=N/A time=00:21:13.35 bitrate=N/A speed=15.2x    frame=30719 fps=365 q=-0.0 size=N/A time=00:21:21.23 bitrate=N/A speed=15.2x    frame=30912 fps=365 q=-0.0 size=N/A time=00:21:29.28 bitrate=N/A speed=15.2x    frame=31090 fps=365 q=-0.0 size=N/A time=00:21:36.71 bitrate=N/A speed=15.2x    frame=31288 fps=365 q=-0.0 size=N/A time=00:21:44.97 bitrate=N/A speed=15.2x    frame=31472 fps=365 q=-0.0 size=N/A time=00:21:52.64 bitrate=N/A speed=15.2x    frame=31664 fps=365 q=-0.0 size=N/A time=00:22:00.65 bitrate=N/A speed=15.2x    frame=31849 fps=365 q=-0.0 size=N/A time=00:22:08.36 bitrate=N/A speed=15.2x    frame=32034 fps=365 q=-0.0 size=N/A time=00:22:16.08 bitrate=N/A speed=15.2x    frame=32208 fps=365 q=-0.0 size=N/A time=00:22:23.34 bitrate=N/A speed=15.2x    frame=32369 fps=365 q=-0.0 size=N/A time=00:22:30.05 bitrate=N/A speed=15.2x    frame=32551 fps=364 q=-0.0 size=N/A time=00:22:37.64 bitrate=N/A speed=15.2x    frame=32703 fps=364 q=-0.0 size=N/A time=00:22:43.98 bitrate=N/A speed=15.2x    frame=32882 fps=364 q=-0.0 size=N/A time=00:22:51.45 bitrate=N/A speed=15.2x    frame=33056 fps=364 q=-0.0 size=N/A time=00:22:58.71 bitrate=N/A speed=15.2x    frame=33226 fps=364 q=-0.0 size=N/A time=00:23:05.80 bitrate=N/A speed=15.2x    frame=33414 fps=364 q=-0.0 size=N/A time=00:23:13.64 bitrate=N/A speed=15.2x    frame=33589 fps=364 q=-0.0 size=N/A time=00:23:20.94 bitrate=N/A speed=15.2x    frame=33771 fps=363 q=-0.0 size=N/A time=00:23:28.53 bitrate=N/A speed=15.2x    frame=33960 fps=363 q=-0.0 size=N/A time=00:23:36.41 bitrate=N/A speed=15.2x    [Parsed_psnr_16 @ 000001c23ca1e480] PSNR y:48.637163 u:50.492145 v:50.642485 average:49.190226 min:40.035007 max:90.950958
[out#0/null @ 000001c23b073a00] video:14640KiB audio:266452KiB subtitle:0KiB other streams:0KiB global headers:0KiB muxing overhead: unknown
frame=34071 fps=364 q=-0.0 Lsize=N/A time=00:23:41.04 bitrate=N/A speed=15.2x    
